<mxfile host="app.diagrams.net" modified="2023-04-11T11:06:53.897Z" agent="Mozilla/5.0 (Windows NT 10.0; Win64; x64) AppleWebKit/537.36 (KHTML, like Gecko) Chrome/111.0.0.0 Safari/537.36" etag="ZX0jEtukFPAnY6UVHo05" version="21.1.5" type="device">
  <diagram name="Page-1" id="BiYcwkv3uQMjTzSl8Rj8">
    <mxGraphModel dx="1434" dy="764" grid="1" gridSize="10" guides="1" tooltips="1" connect="1" arrows="1" fold="1" page="1" pageScale="1" pageWidth="827" pageHeight="1169" math="0" shadow="0">
      <root>
        <mxCell id="0" />
        <mxCell id="1" parent="0" />
        <mxCell id="iEsIdZ60dO6zDhBgfkDJ-3" value="" style="edgeStyle=orthogonalEdgeStyle;rounded=0;orthogonalLoop=1;jettySize=auto;html=1;" edge="1" parent="1" source="iEsIdZ60dO6zDhBgfkDJ-1" target="iEsIdZ60dO6zDhBgfkDJ-2">
          <mxGeometry relative="1" as="geometry" />
        </mxCell>
        <mxCell id="iEsIdZ60dO6zDhBgfkDJ-1" value="User fill search input" style="rounded=1;whiteSpace=wrap;html=1;fillColor=#f5f5f5;fontColor=#333333;strokeColor=#666666;" vertex="1" parent="1">
          <mxGeometry x="560" y="30" width="120" height="60" as="geometry" />
        </mxCell>
        <mxCell id="iEsIdZ60dO6zDhBgfkDJ-7" style="edgeStyle=orthogonalEdgeStyle;rounded=0;orthogonalLoop=1;jettySize=auto;html=1;" edge="1" parent="1" source="iEsIdZ60dO6zDhBgfkDJ-2">
          <mxGeometry relative="1" as="geometry">
            <mxPoint x="550" y="60" as="targetPoint" />
            <Array as="points">
              <mxPoint x="410" y="245" />
              <mxPoint x="410" y="60" />
            </Array>
          </mxGeometry>
        </mxCell>
        <mxCell id="iEsIdZ60dO6zDhBgfkDJ-14" value="" style="edgeStyle=orthogonalEdgeStyle;rounded=0;orthogonalLoop=1;jettySize=auto;html=1;" edge="1" parent="1" source="iEsIdZ60dO6zDhBgfkDJ-2" target="iEsIdZ60dO6zDhBgfkDJ-13">
          <mxGeometry relative="1" as="geometry" />
        </mxCell>
        <mxCell id="iEsIdZ60dO6zDhBgfkDJ-2" value="Input have equal or &lt;br&gt;more than 3 character" style="rhombus;whiteSpace=wrap;html=1;rounded=1;fillColor=#ffe6cc;strokeColor=#d79b00;" vertex="1" parent="1">
          <mxGeometry x="540" y="170" width="160" height="150" as="geometry" />
        </mxCell>
        <mxCell id="iEsIdZ60dO6zDhBgfkDJ-8" value="No" style="text;html=1;align=center;verticalAlign=middle;resizable=0;points=[];autosize=1;strokeColor=none;fillColor=none;" vertex="1" parent="1">
          <mxGeometry x="370" y="135" width="40" height="30" as="geometry" />
        </mxCell>
        <mxCell id="iEsIdZ60dO6zDhBgfkDJ-17" value="" style="edgeStyle=orthogonalEdgeStyle;rounded=0;orthogonalLoop=1;jettySize=auto;html=1;" edge="1" parent="1" source="iEsIdZ60dO6zDhBgfkDJ-13" target="iEsIdZ60dO6zDhBgfkDJ-16">
          <mxGeometry relative="1" as="geometry" />
        </mxCell>
        <mxCell id="iEsIdZ60dO6zDhBgfkDJ-13" value="Filter recipes containing&lt;br&gt;the given word in&lt;br&gt;ingredients, title or&lt;br&gt;description" style="rhombus;whiteSpace=wrap;html=1;fillColor=#fff2cc;strokeColor=#d6b656;rounded=1;" vertex="1" parent="1">
          <mxGeometry x="520" y="370" width="201" height="190" as="geometry" />
        </mxCell>
        <mxCell id="iEsIdZ60dO6zDhBgfkDJ-15" value="Yes" style="text;html=1;align=center;verticalAlign=middle;resizable=0;points=[];autosize=1;strokeColor=none;fillColor=none;" vertex="1" parent="1">
          <mxGeometry x="620" y="320" width="40" height="30" as="geometry" />
        </mxCell>
        <mxCell id="iEsIdZ60dO6zDhBgfkDJ-21" value="" style="edgeStyle=orthogonalEdgeStyle;rounded=0;orthogonalLoop=1;jettySize=auto;html=1;" edge="1" parent="1" source="iEsIdZ60dO6zDhBgfkDJ-16" target="iEsIdZ60dO6zDhBgfkDJ-20">
          <mxGeometry relative="1" as="geometry" />
        </mxCell>
        <mxCell id="iEsIdZ60dO6zDhBgfkDJ-16" value="return is equal or more &lt;br&gt;than one recipe" style="shape=hexagon;perimeter=hexagonPerimeter2;whiteSpace=wrap;html=1;fixedSize=1;fillColor=#ffe6cc;strokeColor=#d79b00;rounded=1;" vertex="1" parent="1">
          <mxGeometry x="545.5" y="635" width="150" height="80" as="geometry" />
        </mxCell>
        <mxCell id="iEsIdZ60dO6zDhBgfkDJ-24" value="" style="edgeStyle=orthogonalEdgeStyle;rounded=0;orthogonalLoop=1;jettySize=auto;html=1;" edge="1" parent="1" source="iEsIdZ60dO6zDhBgfkDJ-20" target="iEsIdZ60dO6zDhBgfkDJ-23">
          <mxGeometry relative="1" as="geometry" />
        </mxCell>
        <mxCell id="iEsIdZ60dO6zDhBgfkDJ-20" value="Update advanced field&lt;br&gt;with recipe data" style="rhombus;whiteSpace=wrap;html=1;fillColor=#fff2cc;strokeColor=#d6b656;rounded=1;" vertex="1" parent="1">
          <mxGeometry x="542" y="770" width="156" height="150" as="geometry" />
        </mxCell>
        <mxCell id="iEsIdZ60dO6zDhBgfkDJ-22" value="Yes" style="text;html=1;align=center;verticalAlign=middle;resizable=0;points=[];autosize=1;strokeColor=none;fillColor=none;" vertex="1" parent="1">
          <mxGeometry x="630" y="730" width="40" height="30" as="geometry" />
        </mxCell>
        <mxCell id="iEsIdZ60dO6zDhBgfkDJ-23" value="Update displayed recipe" style="rhombus;whiteSpace=wrap;html=1;fillColor=#fff2cc;strokeColor=#d6b656;rounded=1;" vertex="1" parent="1">
          <mxGeometry x="560.5" y="1000" width="120" height="120" as="geometry" />
        </mxCell>
        <mxCell id="iEsIdZ60dO6zDhBgfkDJ-28" value="" style="edgeStyle=orthogonalEdgeStyle;rounded=0;orthogonalLoop=1;jettySize=auto;html=1;" edge="1" parent="1" source="iEsIdZ60dO6zDhBgfkDJ-26" target="iEsIdZ60dO6zDhBgfkDJ-27">
          <mxGeometry relative="1" as="geometry" />
        </mxCell>
        <mxCell id="iEsIdZ60dO6zDhBgfkDJ-26" value="Empty advanced field" style="rhombus;whiteSpace=wrap;html=1;fillColor=#fff2cc;strokeColor=#d6b656;" vertex="1" parent="1">
          <mxGeometry x="290" y="615" width="140" height="120" as="geometry" />
        </mxCell>
        <mxCell id="iEsIdZ60dO6zDhBgfkDJ-27" value="Empty displayed &lt;br&gt;recipe" style="rhombus;whiteSpace=wrap;html=1;fillColor=#fff2cc;strokeColor=#d6b656;" vertex="1" parent="1">
          <mxGeometry x="80" y="605" width="140" height="140" as="geometry" />
        </mxCell>
        <mxCell id="iEsIdZ60dO6zDhBgfkDJ-29" value="" style="endArrow=classic;html=1;rounded=0;exitX=0;exitY=0.5;exitDx=0;exitDy=0;entryX=0.25;entryY=1.2;entryDx=0;entryDy=0;entryPerimeter=0;" edge="1" parent="1" source="iEsIdZ60dO6zDhBgfkDJ-16">
          <mxGeometry width="50" height="50" relative="1" as="geometry">
            <mxPoint x="390" y="640" as="sourcePoint" />
            <mxPoint x="430" y="676" as="targetPoint" />
          </mxGeometry>
        </mxCell>
        <mxCell id="iEsIdZ60dO6zDhBgfkDJ-30" value="No" style="text;html=1;align=center;verticalAlign=middle;resizable=0;points=[];autosize=1;strokeColor=none;fillColor=none;" vertex="1" parent="1">
          <mxGeometry x="480" y="645" width="40" height="30" as="geometry" />
        </mxCell>
      </root>
    </mxGraphModel>
  </diagram>
</mxfile>
